<svg width="24" height="20" viewBox="0 0 24 20" fill="none" xmlns="http://www.w3.org/2000/svg">
<path fill-rule="evenodd" clip-rule="evenodd" d="M24 1C24 1.55228 23.5523 2 23 2H1C0.447715 2 0 1.55228 0 1C0 0.447715 0.447716 0 1 0H23C23.5523 0 24 0.447715 24 1Z" fill="black"/>
<path fill-rule="evenodd" clip-rule="evenodd" d="M24 10C24 10.5523 23.5523 11 23 11H1C0.447715 11 0 10.5523 0 10C0 9.44772 0.447716 9 1 9H23C23.5523 9 24 9.44772 24 10Z" fill="black"/>
<path fill-rule="evenodd" clip-rule="evenodd" d="M24 19C24 19.5523 23.5523 20 23 20H1C0.447715 20 0 19.5523 0 19C0 18.4477 0.447716 18 1 18H23C23.5523 18 24 18.4477 24 19Z" fill="black"/>
</svg>
