<svg id="Layer_1" data-name="Layer 1" xmlns="http://www.w3.org/2000/svg" viewBox="0 0 150 150"><defs><style>.cls-1{fill:#39b54a;}</style></defs><title>navUser</title><path class="cls-1" d="M32.62,139.15a52,52,0,0,1,2.49-7.51l-.91,2.15a63.56,63.56,0,0,1,8.31-14l-1.4,1.82a95.54,95.54,0,0,1,16.76-16.44l-1.82,1.41a66,66,0,0,1,14.43-8.75l-2.15.91a38.48,38.48,0,0,1,9.22-2.6l-2.39.32a32.07,32.07,0,0,1,8.42,0l-2.39-.32a36.19,36.19,0,0,1,9,2.49L88,97.69a44.16,44.16,0,0,1,9.43,5.59l-1.82-1.4a51.92,51.92,0,0,1,8.94,9l-1.4-1.82c4.9,6.38,8.48,13.59,11.61,21l-.91-2.15c1.3,3.1,2.53,6.22,3.76,9.35a9.79,9.79,0,0,0,4.14,5.38,9.17,9.17,0,0,0,6.93.9,9.08,9.08,0,0,0,5.38-4.13c1.06-2,1.78-4.72.91-6.94-4.1-10.44-8.19-21.15-14.72-30.36a60.6,60.6,0,0,0-11.3-12.46,55,55,0,0,0-15.64-9,38.88,38.88,0,0,0-16.06-2.36A49.68,49.68,0,0,0,58.9,83.43,80.79,80.79,0,0,0,44.48,93a102.48,102.48,0,0,0-11,10c-8.38,8.86-15.27,19.49-18.25,31.44-1.14,4.56,1.47,10,6.29,11.07,4.66,1.06,9.85-1.4,11.07-6.29Z"/><path class="cls-1" d="M86.7,7.58a48.37,48.37,0,0,0-27.79,1A47,47,0,0,0,35.45,26.05,44.5,44.5,0,0,0,27.77,52.6,43.55,43.55,0,0,0,38.49,79.73,46.5,46.5,0,0,0,61.88,94a47.32,47.32,0,0,0,29.55-2.31,58.6,58.6,0,0,0,25.24-19.24,32.93,32.93,0,0,0,5-29.05c-3.12-9.9-10.13-18-18.72-23.68-8.35-5.47-18.17-8.51-27.79-10.85-2.28-.55-4.56-1.07-6.84-1.58a9.53,9.53,0,0,0-6.94.9,9.24,9.24,0,0,0-4.13,5.38c-1,4.58,1.37,10,6.28,11.07,8,1.81,16,3.65,23.51,6.81l-2.15-.91A53,53,0,0,1,96.3,37l-1.82-1.41a40,40,0,0,1,7,6.87L100,40.61a33.61,33.61,0,0,1,4.31,7.25l-.91-2.15a27.54,27.54,0,0,1,1.83,6.48l-.32-2.39a24.42,24.42,0,0,1,.06,6l.32-2.4a24.9,24.9,0,0,1-1.72,6.28l.9-2.15a31.11,31.11,0,0,1-4,6.63L102,62.32a44,44,0,0,1-7.63,7.49l1.82-1.41A54,54,0,0,1,84.5,75.24l2.15-.91a44.94,44.94,0,0,1-11.08,3.08l2.4-.32a37.68,37.68,0,0,1-9.49,0l2.39.32a38.62,38.62,0,0,1-9.67-2.64l2.15.9a40.07,40.07,0,0,1-8.62-5l1.82,1.4a38.26,38.26,0,0,1-6.49-6.48l1.41,1.82a34.46,34.46,0,0,1-4.27-7.24l.91,2.15a34.65,34.65,0,0,1-2.36-8.59l.32,2.39a37,37,0,0,1,0-9.64l-.32,2.39a37.41,37.41,0,0,1,2.54-9.33l-.91,2.15a36,36,0,0,1,4.51-7.76l-1.41,1.82a35.78,35.78,0,0,1,6.28-6.26l-1.82,1.4a40,40,0,0,1,8.64-5l-2.15.91A42,42,0,0,1,71.5,24.06l-2.4.32a40.54,40.54,0,0,1,10.44-.06L77.15,24a38.67,38.67,0,0,1,4.77.94c4.54,1.19,10-1.51,11.07-6.29S91.57,8.86,86.7,7.58Z"/></svg>