<svg id="Layer_1" data-name="Layer 1" xmlns="http://www.w3.org/2000/svg" viewBox="0 0 150 150"><defs><style>.cls-1{fill:#39b54a;}</style></defs><title>logo</title><path class="cls-1" d="M76.77,51.15A87.36,87.36,0,0,0,60,34.67a99.13,99.13,0,0,0-10.72-7,86,86,0,0,0-12.08-5.49,28.83,28.83,0,0,0-15.79-1.4,15.23,15.23,0,0,0-2.3.69,27,27,0,0,0-3.89,1.72,30.5,30.5,0,0,0-3.38,2.36A15.68,15.68,0,0,0,10,27.18,27.18,27.18,0,0,0,3.38,38.27a32.41,32.41,0,0,0-1.23,7.44,33.64,33.64,0,0,0,.19,6A90.71,90.71,0,0,0,7.9,73.56,122.15,122.15,0,0,0,17,92.47a130.4,130.4,0,0,0,12.4,17.18,123.15,123.15,0,0,0,13.82,14,135.27,135.27,0,0,0,17.36,12.69,120.92,120.92,0,0,0,17.83,9.07c2.08.85,4.18,1.68,6.29,2.45a6.28,6.28,0,0,0,3.07.13,6.08,6.08,0,0,0,2.87-.86,7.45,7.45,0,0,0,3.53-4.32,6.94,6.94,0,0,0-.77-5.58l-1.21-1.46a7.74,7.74,0,0,0-3.39-1.86c-1.11-.4-2.21-.82-3.31-1.26l1.84.73A122.25,122.25,0,0,1,66.2,122.47c-1.88-1.22-3.73-2.48-5.54-3.8l1.56,1.14a124.77,124.77,0,0,1-18.36-16.32c-1.55-1.69-3.06-3.43-4.51-5.19l1.2,1.46A117.79,117.79,0,0,1,27.36,79.91q-1.58-3-3-6.08l.78,1.72a106.07,106.07,0,0,1-6.23-18c-.54-2.19-1-4.39-1.33-6.61l.28,1.92a33.62,33.62,0,0,1-.13-9.29l-.28,1.93a21.88,21.88,0,0,1,1.62-5.76l-.77,1.72a20.2,20.2,0,0,1,2.75-4.43l-1.2,1.47a18.85,18.85,0,0,1,3.31-3.12l-1.56,1.13A16.74,16.74,0,0,1,25,34.69l-1.83.73a15.57,15.57,0,0,1,3.46-.89l-2.05.26a18.62,18.62,0,0,1,4.35,0l-2.05-.26a31.74,31.74,0,0,1,7.43,2.05l-1.84-.73a82.52,82.52,0,0,1,17.69,9.82l-1.56-1.14a82.3,82.3,0,0,1,15.1,14.17l-1.21-1.46,1,1.19a5.58,5.58,0,0,0,2,2,5.87,5.87,0,0,0,2.62,1.29A8.29,8.29,0,0,0,74,61a7.4,7.4,0,0,0,3.54-4.32c.43-1.78.43-4-.78-5.57Z"/><path class="cls-1" d="M81.53,59.48a39.49,39.49,0,0,1,.33-7.61l-.27,1.92a39.52,39.52,0,0,1,3-10.31l-.77,1.73A71.9,71.9,0,0,1,94.22,29.43L93,30.89c1.48-1.8,3-3.58,4.54-5.34a22.59,22.59,0,0,1,3.74-3.5l-1.56,1.13a40.37,40.37,0,0,1,8.7-4.65l-1.83.73a46,46,0,0,1,10.85-2.9l-2,.26a23.63,23.63,0,0,1,5.94-.1l-2-.26a15.45,15.45,0,0,1,3.66,1l-1.84-.73a16.78,16.78,0,0,1,3.49,1.95l-1.56-1.13a20.5,20.5,0,0,1,3.56,3.4l-1.2-1.47a29.23,29.23,0,0,1,4,6.54l-.77-1.73a50.51,50.51,0,0,1,3.61,13.39L132,35.53a70.7,70.7,0,0,1-.12,19.76l.28-1.92A93.16,93.16,0,0,1,124.78,78l.78-1.73a137.74,137.74,0,0,1-16,26.26q-2.67,3.53-5.49,6.94l1.21-1.46c-5.48,6.65-11.3,13-17.2,19.35l-5,5.38a7.41,7.41,0,0,0-2.26,5.11A7.13,7.13,0,0,0,83,143a8,8,0,0,0,5.44,2.12A7.88,7.88,0,0,0,93.92,143c5.9-6.26,11.8-12.54,17.42-19a230,230,0,0,0,16.79-21.46,131.88,131.88,0,0,0,12.72-23.46,96.51,96.51,0,0,0,6.61-25.32A73.16,73.16,0,0,0,146,27.91a48.44,48.44,0,0,0-4.3-11.45A27.09,27.09,0,0,0,139,12.24a27.77,27.77,0,0,0-4.63-4.88A32.94,32.94,0,0,0,130.88,5,28.24,28.24,0,0,0,127,3.24,22.68,22.68,0,0,0,120.71,2a23.3,23.3,0,0,0-4.34.06,54.91,54.91,0,0,0-6.76,1,58.88,58.88,0,0,0-11.38,4A39.29,39.29,0,0,0,88.89,13a32.8,32.8,0,0,0-3.22,3.45q-2.44,2.84-4.81,5.73a93.08,93.08,0,0,0-6.59,8.91,58.41,58.41,0,0,0-5.43,10.8,44.94,44.94,0,0,0-2.61,12,39.27,39.27,0,0,0-.1,5.53,7.41,7.41,0,0,0,2.26,5.11,8.05,8.05,0,0,0,10.89,0,7.05,7.05,0,0,0,2.25-5.11Z"/><path class="cls-1" d="M20.87,40A35.51,35.51,0,0,0,19,49.64a42.2,42.2,0,0,0,.73,9.84,41.27,41.27,0,0,0,2.23,7.92,63,63,0,0,0,4.38,9.06,99.72,99.72,0,0,0,11.38,15c4,4.51,8.19,8.84,12.33,13.22l13.08,13.84a74.24,74.24,0,0,0,6,5.94,39.21,39.21,0,0,0,4.66,3.41,24.63,24.63,0,0,0,5,2.28,17.66,17.66,0,0,0,5.59.88,16.2,16.2,0,0,0,5.45-.87A23.11,23.11,0,0,0,93,128.8a24,24,0,0,0,3-2.13,16.69,16.69,0,0,0,2.46-2.44,41.4,41.4,0,0,0,3.21-4.27c.7-1.1,1.36-2.23,2-3.36q2.22-3.82,4.32-7.7A301.26,301.26,0,0,0,123.5,75.61q3.19-8.16,5.89-16.5,1.35-4.17,2.56-8.37a56.41,56.41,0,0,0,1.64-7,34.53,34.53,0,0,0,.59-8.72,26.55,26.55,0,0,0-.84-5,15.57,15.57,0,0,0-.55-1.58,30.16,30.16,0,0,0-1.46-3.1,19.46,19.46,0,0,0-7.33-7.1,23.7,23.7,0,0,0-10.17-2.74,20,20,0,0,0-3.46.12,30.38,30.38,0,0,0-5.46,1,26.31,26.31,0,0,0-9.44,5A34.74,34.74,0,0,0,89,28.46,46,46,0,0,0,84.85,35a99.27,99.27,0,0,0-6.92,16.76,105.44,105.44,0,0,0-3.73,17.9A99.52,99.52,0,0,0,76,104.15q.88,3.9,2.12,7.73l.78,1.73,1.2,1.46,1.56,1.13a6,6,0,0,0,2.86.86,4.18,4.18,0,0,0,2,0,4,4,0,0,0,1.94-.49,3.89,3.89,0,0,0,1.7-.93,5.58,5.58,0,0,0,2-2c5.23-11.38,10-22.94,14.15-34.71q5.91-16.8,10.25-34.05,2.45-9.69,4.36-19.49a5.18,5.18,0,0,0,.13-2.89,5.13,5.13,0,0,0-.91-2.69L119,18.32a5.92,5.92,0,0,0-2.48-1.5,4.08,4.08,0,0,0-1.94-.49,6.27,6.27,0,0,0-3.07.13,7.87,7.87,0,0,0-4.6,3.32L90.4,47.45,73.88,75.11l-4.59,7.68L67,86.63a26.1,26.1,0,0,1-2,3.09l1.2-1.46a8.53,8.53,0,0,1-1.4,1.35l1.56-1.13a6.08,6.08,0,0,1-1.17.66L67,88.41a5.5,5.5,0,0,1-1.27.32l2-.26a5.44,5.44,0,0,1-1.21,0l2.05.25a5.54,5.54,0,0,1-1.27-.34l1.84.73a7.19,7.19,0,0,1-1.41-.79l1.56,1.13a11.21,11.21,0,0,1-2.07-2l1.2,1.47a38.36,38.36,0,0,1-4.06-7.16L60.1,73.09,51.37,55.57l-4.95-9.93L35.89,55.53A80.91,80.91,0,0,1,51.07,64.2l-1.56-1.14A79.28,79.28,0,0,1,64.08,76.75l-1.2-1.47a74.67,74.67,0,0,1,7.19,10.46,7.83,7.83,0,0,0,4.6,3.32,6.16,6.16,0,0,0,3.07.13,5.9,5.9,0,0,0,2.86-.86A7.3,7.3,0,0,0,84.14,84a7.4,7.4,0,0,0-.77-5.57A83,83,0,0,0,70.53,61.57,87.78,87.78,0,0,0,53.64,48.23a80.62,80.62,0,0,0-10-5.19l-1.84-.73a6.27,6.27,0,0,0-3.07-.13,4,4,0,0,0-1.94.5,5.9,5.9,0,0,0-2.48,1.49,8.72,8.72,0,0,0-2,3.19,5.18,5.18,0,0,0-.13,2.89,5.13,5.13,0,0,0,.91,2.69L46.22,79.22q3.26,6.56,6.52,13.1a26.59,26.59,0,0,0,4.07,5.87A17.7,17.7,0,0,0,60.23,101a11.65,11.65,0,0,0,3.91,1.64,13.84,13.84,0,0,0,6.24,0,13.58,13.58,0,0,0,5.51-2.92,16.69,16.69,0,0,0,3-3.43c.6-.85,1.11-1.76,1.64-2.65L88,81l15.21-25.49,15.12-25.3,1.87-3.14-14.07-5.58q-3.28,16.76-8.07,33.21T87,87.17q-3.5,9-7.45,17.74l.78-1.73c-.47,1-.94,2.09-1.42,3.13L93,108A93.2,93.2,0,0,1,89.5,92.78l.27,1.93A94.23,94.23,0,0,1,89.15,74q.24-2.94.66-5.85L89.53,70a94.75,94.75,0,0,1,5-19.59q1-2.73,2.22-5.4L96,46.76a52.5,52.5,0,0,1,7-11.89l-1.2,1.46a27.83,27.83,0,0,1,4.86-4.65l-1.56,1.13a20.23,20.23,0,0,1,4.36-2.44l-1.84.73a20.1,20.1,0,0,1,4.83-1.26l-2,.26a19.35,19.35,0,0,1,4.5,0l-2.05-.25a15.57,15.57,0,0,1,3.69.91L114.67,30a13.58,13.58,0,0,1,2.78,1.51l-1.56-1.13a13,13,0,0,1,2.22,2.1L116.91,31a12.41,12.41,0,0,1,1.69,2.75L117.83,32A15.56,15.56,0,0,1,119,36.09l-.27-1.92a25.62,25.62,0,0,1-.13,7l.28-1.92A58.07,58.07,0,0,1,117.08,47q-1.35,4.65-2.85,9.26-3,9.12-6.58,18-2.06,5.07-4.29,10.06l.78-1.73a288.16,288.16,0,0,1-13.8,26.85,45.45,45.45,0,0,1-3.92,6l1.2-1.46a16,16,0,0,1-2.81,2.71l1.56-1.13a11.45,11.45,0,0,1-2.35,1.3l1.84-.73a9.8,9.8,0,0,1-2.28.59l2-.26a10.62,10.62,0,0,1-2.52,0l2,.26a12.49,12.49,0,0,1-2.88-.76l1.84.73a19.1,19.1,0,0,1-4-2.26l1.56,1.14a50.79,50.79,0,0,1-6.77-6.33l-7.52-8C62.5,96.13,57.6,91,52.75,85.79c-2.54-2.71-5-5.46-7.38-8.32l1.2,1.46a67.91,67.91,0,0,1-9.67-15l.77,1.73a42.64,42.64,0,0,1-3.28-11.06l.28,1.92a32.7,32.7,0,0,1-.06-9.11l-.27,1.92a28.06,28.06,0,0,1,1.38-5.52,5.15,5.15,0,0,0,.14-2.88,5.14,5.14,0,0,0-.92-2.69,5.58,5.58,0,0,0-2-2,5.94,5.94,0,0,0-2.62-1.3,8.24,8.24,0,0,0-5.93.73l-1.56,1.13a7.26,7.26,0,0,0-2,3.2Z"/></svg>